<svg viewBox="0 0 400 90" xmlns="http://www.w3.org/2000/svg">
  <defs>
    <style>@import url('https://fonts.googleapis.com/css2?family=Instrument+Serif&amp;family=Syne:wght@800&amp;family=Inter:wght@500&amp;display=swap');</style>
  </defs>
  <g transform="translate(2,8)">
    <path d="M38 4 C38 4 18 6 4 10 L4 66 C18 62 38 62 38 62 Z" fill="#C9A84C" opacity="0.92"/>
    <path d="M38 4 C38 4 58 6 72 10 L72 66 C58 62 38 62 38 62 Z" fill="#E8C76A" opacity="0.88"/>
    <rect x="35" y="2" width="6" height="62" rx="3" fill="#8B6914"/>
    <circle cx="56" cy="22" r="4.5" fill="white"/>
    <circle cx="62" cy="38" r="4.5" fill="white"/>
    <circle cx="53" cy="53" r="4.5" fill="white"/>
    <path d="M56 27 Q64 32 62 34" stroke="white" stroke-width="2" stroke-dasharray="3 2.5" fill="none" stroke-linecap="round"/>
    <path d="M62 43 Q57 49 53 49" stroke="white" stroke-width="2" stroke-dasharray="3 2.5" fill="none" stroke-linecap="round"/>
    <line x1="12" y1="24" x2="32" y2="22" stroke="rgba(139,105,20,0.35)" stroke-width="2.5" stroke-linecap="round"/>
    <line x1="11" y1="34" x2="32" y2="32" stroke="rgba(139,105,20,0.3)"  stroke-width="2.5" stroke-linecap="round"/>
    <line x1="11" y1="44" x2="32" y2="42" stroke="rgba(139,105,20,0.22)" stroke-width="2.5" stroke-linecap="round"/>
    <line x1="12" y1="54" x2="30" y2="52" stroke="rgba(139,105,20,0.14)" stroke-width="2.5" stroke-linecap="round"/>
  </g>
  <text x="96" y="50" font-family="'Instrument Serif', Georgia, serif" font-size="44" fill="#3D2B00" letter-spacing="-0.5">studyplan<tspan font-family="'Syne', sans-serif" font-weight="800" font-size="36" letter-spacing="2.5" fill="#C9A84C">HQ</tspan></text>
  <text x="98" y="72" font-family="'Inter', sans-serif" font-size="11.5" fill="#A07830" letter-spacing="3.5" font-weight="500">DEGREE PLANNING</text>
</svg>
